<svg id="visual" viewBox="0 0 1024 1024" width="1024" height="1024" xmlns="http://www.w3.org/2000/svg" xmlns:xlink="http://www.w3.org/1999/xlink" version="1.1"><rect width="1024" height="1024" fill="#001122"></rect><g><g transform="translate(898 602)"><path d="M0 -213L184.4 -106.5L184.4 106.5L0 213L-184.4 106.5L-184.4 -106.5Z" fill="#009473"></path></g><g transform="translate(167 160)"><path d="M0 -168L145.5 -84L145.5 84L0 168L-145.5 84L-145.5 -84Z" fill="#009473"></path></g><g transform="translate(655 962)"><path d="M0 -133L115.2 -66.5L115.2 66.5L0 133L-115.2 66.5L-115.2 -66.5Z" fill="#009473"></path></g><g transform="translate(179 812)"><path d="M0 -209L181 -104.5L181 104.5L0 209L-181 104.5L-181 -104.5Z" fill="#009473"></path></g></g></svg>