<?xml version="1.0" encoding="UTF-8" standalone="no"?>
<!DOCTYPE svg PUBLIC "-//W3C//DTD SVG 1.1//EN" "http://www.w3.org/Graphics/SVG/1.1/DTD/svg11.dtd">
<svg width="100%" height="100%" viewBox="0 0 1024 1024" version="1.1" xmlns="http://www.w3.org/2000/svg" xmlns:xlink="http://www.w3.org/1999/xlink" xml:space="preserve" xmlns:serif="http://www.serif.com/" style="fill-rule:evenodd;clip-rule:evenodd;stroke-linejoin:round;stroke-miterlimit:2;">
    <rect x="0" y="0" width="1024" height="1024" style="fill:rgb(0,17,34);"/>
    <g>
        <g transform="matrix(1,0,0,1,898,602)">
            <path d="M0,-213L184.4,-106.5L184.4,106.5L0,213L-184.4,106.5L-184.4,-106.5L0,-213Z" style="fill:rgb(0,148,115);fill-rule:nonzero;"/>
        </g>
        <g transform="matrix(1,0,0,1,167,160)">
            <path d="M0,-168L145.5,-84L145.5,84L0,168L-145.5,84L-145.5,-84L0,-168Z" style="fill:rgb(0,148,115);fill-rule:nonzero;"/>
        </g>
        <g transform="matrix(1,0,0,1,655,962)">
            <path d="M0,-133L115.2,-66.5L115.2,66.5L0,133L-115.2,66.5L-115.2,-66.5L0,-133Z" style="fill:rgb(0,148,115);fill-rule:nonzero;"/>
        </g>
        <g transform="matrix(1,0,0,1,179,812)">
            <path d="M0,-209L181,-104.5L181,104.5L0,209L-181,104.5L-181,-104.5L0,-209Z" style="fill:rgb(0,148,115);fill-rule:nonzero;"/>
        </g>
    </g>
    <g transform="matrix(1,0,0,1,-632.268,70.1009)">
        <g transform="matrix(512,0,0,512,1425.36,621.099)">
        </g>
        <text x="863.692px" y="621.099px" style="font-family:'Borda-DemiBold', 'Borda';font-weight:600;font-size:512px;fill:white;">A<tspan x="1142.73px " y="621.099px ">T</tspan></text>
    </g>
</svg>
